<svg xmlns="http://www.w3.org/2000/svg" xmlns:svg="http://www.w3.org/2000/svg" id="svg2" width="744.094" height="1052.362" version="1.1"><metadata id="metadata7"/><g id="layer1" style="display:inline"><path style="fill:#ffde84;fill-opacity:1;fill-rule:evenodd;stroke:#000;stroke-width:1px;stroke-linecap:butt;stroke-linejoin:miter;stroke-opacity:1" id="path2890" d="m 395.47472,207.11703 a 38.385796,35.607876 0 1 1 -76.77159,0 38.385796,35.607876 0 1 1 76.77159,0 z" transform="matrix(1.3696999,0,0,1.6243031,-362.68286,-223.3787)"/><path style="fill:#fff;fill-opacity:1" id="path2896" d="m 485.88337,173.27693 a 18.182745,21.970818 0 1 1 -36.36549,0 18.182745,21.970818 0 1 1 36.36549,0 z" transform="matrix(0.93521279,0,0,0.82648487,-283.74858,-18.336492)"/><path style="fill:#333;fill-opacity:1" id="path2894" d="m 455.5788,176.55992 a 10.859139,11.111678 0 1 1 -21.71827,0 10.859139,11.111678 0 1 1 21.71827,0 z" transform="matrix(0.41860464,0,0,0.45454546,-34.638825,46.828241)"/><path style="fill:#fff;fill-opacity:1" id="path2896-6" d="m 485.88337,173.27693 a 18.182745,21.970818 0 1 1 -36.36549,0 18.182745,21.970818 0 1 1 36.36549,0 z" transform="matrix(0.89354612,0,0,0.82648487,-319.31716,-17.380783)"/><path style="fill:#333;fill-opacity:1" id="path2894-6" d="m 455.5788,176.55992 a 10.859139,11.111678 0 1 1 -21.71827,0 10.859139,11.111678 0 1 1 21.71827,0 z" transform="matrix(0.41860464,0,0,0.45454546,-85.187075,47.818092)"/><path style="fill:red;stroke:#000;stroke-width:1.53083968px;stroke-linecap:butt;stroke-linejoin:miter;stroke-opacity:1" id="path2960" d="M 207.38308,129.79234 C 65.890995,84.402587 123.16272,57.883138 123.16272,57.883138 l 84.22036,71.909202 z"/><path style="fill:red;stroke:#000;stroke-width:1.14557302px;stroke-linecap:butt;stroke-linejoin:miter;stroke-opacity:1" id="path2960-2" d="M 213.96457,102.09546 C 112.79343,107.04657 126.91699,54.04465 126.91699,54.04465 l 87.04758,48.05081 z"/><path style="fill:red;stroke:#000;stroke-width:1.14557302px;stroke-linecap:butt;stroke-linejoin:miter;stroke-opacity:1" id="path2960-2-8-5" d="M 55.908125,120.50417 C 64.716175,21.128534 160.68855,56.114072 160.68855,56.114072 L 55.908125,120.50417 z"/><path style="fill:red;stroke:#000;stroke-width:1.14557302px;stroke-linecap:butt;stroke-linejoin:miter;stroke-opacity:1" id="path2960-2-8" d="M 154.66267,56.321334 C 161.49459,114.86575 72.565705,104.9084 72.565705,104.9084 L 154.66267,56.321334 z"/><path style="fill:red;stroke:#000;stroke-width:1.66629374px;stroke-linecap:butt;stroke-linejoin:miter;stroke-opacity:1" id="path2960-2-8-9" d="M 78.854525,69.505742 C 113.73162,-11.308442 209.65047,90.263926 209.65047,90.263926 L 78.854525,69.505742 z"/></g></svg>